{"title":"Cheatsheet to the Universe 720p x264.mp4","uid":12370887,"size":358099490,"categoryP":"video","categoryS":"hd___tv_shows","magnet":"?xt=urn:btih:5cc5a20b170356ede178333fee77f215c4a73d94&amp;dn=Cheatsheet+to+the+Universe+720p+x264.mp4&amp;tr=udp%3A%2F%2Ftracker.openbittorrent.com%3A80&amp;tr=udp%3A%2F%2Fopen.demonii.com%3A1337&amp;tr=udp%3A%2F%2Ftracker.coppersurfer.tk%3A6969&amp;tr=udp%3A%2F%2Fexodus.desync.com%3A6969","seeders":1,"leechers":0,"uploader":"isomakerx5","files":1,"time":1441653310,"description":"\nGeneral                     : A Canadian-British production for SCi Channel-CAN\nPlot                        : A bunch of Brits Scientists explain the Universe\n\nFormat                      : MPEG-4\nFormat profile              : Base Media / Version 2\nCodec ID                    : mp42\nFile size                   : 342 MiB\nDuration                    : 42mn 28s\nOverall bit rate mode       : Variable\nOverall bit rate            : 1 124 Kbps\nWriting application         : Any Video Converter Ultimate mp4creator 1.4.4\nSelected Profile            : iOS/Google Android HD Tablets Movie @ 720p\n\nVideo\nID                          : 1\nFormat                      : AVC\nFormat/Info                 : Advanced Video Codec\nFormat profile              : &lt;a class=&quot;__cf_email__&quot; href=&quot;/cdn-cgi/l/email-protection&quot; data-cfemail=&quot;88c0e1efe0c8c4b9a6bb&quot;&gt;[email&amp;#160;protected]&lt;/a&gt;&lt;script data-cfhash='f9e31' type=&quot;text/javascript&quot;&gt;\n/* &lt;![CDATA[ */!function(){try{var t=&quot;currentScript&quot;in document?document.currentScript:function(){for(var t=document.getElementsByTagName(&quot;script&quot;),e=t.length;e--;)if(t[e].getAttribute(&quot;data-cfhash&quot;))return t[e]}();if(t&amp;&amp;t.previousSibling){var e,r,n,i,c=t.previousSibling,a=c.getAttribute(&quot;data-cfemail&quot;);if(a){for(e=&quot;&quot;,r=parseInt(a.substr(0,2),16),n=2;a.length-n;n+=2)i=parseInt(a.substr(n,2),16)^r,e+=String.fromCharCode(i);e=document.createTextNode(e),c.parentNode.replaceChild(e,c)}t.parentNode.removeChild(t);}}catch(u){}}()/* ]]&gt; */&lt;/script&gt;\nFormat settings, CABAC      : Yes\nFormat settings, ReFrames   : 5 frames\nCodec ID                    : avc1\nCodec ID/Info               : Advanced Video Coding\nDuration                    : 42mn 28s\nBit rate                    : 1 000 Kbps\nWidth                       : 1 280 pixels\nHeight                      : 720 pixels\nDisplay aspect ratio        : 16:9\nOriginal display aspect rat : 16:9\nFrame rate mode             : Variable\nFrame rate                  : 23.976 fps\nMinimum frame rate          : 23.974 fps\nMaximum frame rate          : 23.981 fps\nColor space                 : YUV\nChroma subsampling          : 4:2:0\nBit depth                   : 8 bits\nScan type                   : Progressive\nBits/(Pixel*Frame)          : 0.045\nStream size                 : 304 MiB (89%)\nLanguage                    : English\n\n\nAudio\nID                          : 2\nFormat                      : AAC\nFormat/Info                 : Advanced Audio Codec\nFormat profile              : LC\nCodec ID                    : 40\nDuration                    : 42mn 28s\nBit rate mode               : Variable\nBit rate                    : 120 Kbps\nMaximum bit rate            : 155 Kbps\nChannel(s)                  : 2 channels\nChannel positions           : Front: L R\nSampling rate               : 48.0 KHz\nCompression mode            : Lossy\nStream size                 : 36.3 MiB (11%)\nLanguage                    : English","torrent":{"xt":"urn:btih:5cc5a20b170356ede178333fee77f215c4a73d94","amp;dn":"Cheatsheet+to+the+Universe+720p+x264.mp4","amp;tr":["udp%3A%2F%2Ftracker.openbittorrent.com%3A80","udp%3A%2F%2Fopen.demonii.com%3A1337","udp%3A%2F%2Ftracker.coppersurfer.tk%3A6969","udp%3A%2F%2Fexodus.desync.com%3A6969"],"infoHash":"5cc5a20b170356ede178333fee77f215c4a73d94","infoHashBuffer":{"type":"Buffer","data":[92,197,162,11,23,3,86,237,225,120,51,63,238,119,242,21,196,167,61,148]},"announce":[],"urlList":[]}}